<?xml version="1.0" standalone="no"?>
<!DOCTYPE svg PUBLIC "-//W3C//DTD SVG 20010904//EN"
 "http://www.w3.org/TR/2001/REC-SVG-20010904/DTD/svg10.dtd">
<svg version="1.0" xmlns="http://www.w3.org/2000/svg"
 width="225.000000pt" height="225.000000pt" viewBox="0 0 225.000000 225.000000"
 preserveAspectRatio="xMidYMid meet">
<metadata>
Created by potrace 1.15, written by Peter Selinger 2001-2017
</metadata>
<g transform="translate(0.000000,225.000000) scale(0.100000,-0.100000)"
fill="#000000" stroke="none">
<path d="M465 2226 c-59 -27 -106 -77 -129 -137 -15 -40 -16 -134 -14 -1037
l3 -994 33 -29 c35 -31 81 -38 125 -18 13 6 160 165 328 355 l304 344 219 0
c140 0 233 4 258 12 52 15 132 88 152 137 17 45 186 1090 186 1155 0 50 -37
131 -76 168 -16 15 -49 36 -74 47 -44 20 -63 21 -655 21 l-610 0 -50 -24z
m1209 -222 c9 -8 16 -23 16 -32 1 -49 -44 -310 -56 -329 -14 -23 -15 -23 -305
-23 -311 0 -329 -3 -363 -52 -27 -38 -21 -103 13 -140 l29 -33 279 -5 c153 -3
284 -9 291 -13 18 -12 15 -63 -13 -237 -14 -85 -25 -158 -25 -162 0 -4 -7 -14
-16 -22 -13 -14 -50 -16 -252 -16 -209 0 -240 -2 -264 -18 -20 -13 -236 -251
-454 -501 -2 -2 -4 356 -4 797 l0 802 554 0 c491 0 556 -2 570 -16z"/>
</g>
</svg>
